<svg xmlns="http://www.w3.org/2000/svg" xmlns:xlink="http://www.w3.org/1999/xlink" id="Layer_1" data-name="Layer 1" viewBox="0 0 2255.255815936056933 389.978632653148452">
  <defs>
    <style>
      .cls-1 {
        fill: #111;
      }
      .cls-2 {
        fill: url(#linear-gradient-2);
      }
      .cls-3 {
        fill: url(#linear-gradient);
      }
      .cls-4 {
        fill: #27265e;
      }
    </style>
    <linearGradient id="linear-gradient" x1="125.803383935706734" y1="60.749223685637844" x2="307.71318317368366" y2="270.340948894587598" gradientUnits="userSpaceOnUse">
      <stop offset="0" stop-color="#f568f0"/>
      <stop offset=".516100363756614" stop-color="#f66005"/>
      <stop offset="1" stop-color="#f7c506"/>
    </linearGradient>
    <linearGradient id="linear-gradient-2" x1="62.833967185229994" y1="116.59998848500345" x2="247.380140325206582" y2="334.100835399951109" gradientUnits="userSpaceOnUse">
      <stop offset=".097255926593487" stop-color="#3769ec"/>
      <stop offset=".469264649475839" stop-color="#3b41ec"/>
      <stop offset=".910163828018621" stop-color="#45a5ed"/>
    </linearGradient>
  </defs>
  <g>
    <path class="cls-3" d="M324.981362268786143,129.992237831378588h-64.995735070509909v-64.995735070519913C259.985627198276234,29.099686238732829,230.885557114375843,0,194.989124437402097,0h-.000191922571503c-35.896624599547977,0-64.996502760876865,29.099686238732829-64.996502760876865,64.996502760858675v194.988740592240902h194.988932514832413c35.896624599548886,0,64.996502760847761-29.100070083899482,64.996502760847761-64.996502760861404h0c0-35.896816522124936-29.099878161298875-64.996502760859585-64.996502760847761-64.996502760859585Z"/>
    <path class="cls-2" d="M129.992429753953729,129.993005521721898l-64.995895734060468-.000000072183866c-35.896594519367682-.00000003986861-64.996534019893261,29.099939428331709-64.996534019893261,64.996533947687567v.000321615887515c0,35.896594473575533,29.099939449185513,64.996533912176346,64.99653392275377,64.996533899116002l64.99589583119996-.000000023607754v64.995703975017022c0,35.896594370126877,29.099939333139446,64.996533741870735,64.99653370325359,64.996533789510067h.000129993224618c35.896594365476631.000000047636604,64.996533745576016-29.099939293231728,64.996533746381829-64.996533658697444l.000000001462467-64.995704105829645v-62.589533882657634c0-37.226121463739219-30.177734020510798-67.403855484241831-67.403855484251835-67.403855484241831h-62.589341960070669Z"/>
    <path class="cls-4" d="M194.988867525798014,129.993005513670994h.000129989990768c35.872616463523826,0,64.996629683006205,29.124013219482379,64.996629683006205,64.996629683006205v.000130005939951c0,35.872616466015415-29.124013221505265,64.996629687520681-64.996629687520681,64.996629687520681h-64.996759680081709v-64.99675968186142c0-35.872616469925617,29.1240132246798-64.996629694605417,64.996629694605417-64.996629694605417Z"/>
  </g>
  <g>
    <path class="cls-1" d="M496.730181170426476,254.173991042482157c-5.413330078119543-10.826171875.36083984375-18.76611328125,11.54833984375-21.65283203125l11.1875-2.5263671875c9.743896484380457-2.5263671875,14.074462890630457,2.16552734375,21.653076171880457,9.744140625,6.49609375,7.2177734375,16.239990234369543,10.826171875,27.788330078119543,10.826171875,14.074462890630457,0,23.818359375-6.49560546875,23.818359375-16.23974609375,0-7.939453125-5.413330078119543-11.9091796875-17.322509765619543-16.23974609375l-22.73583984375-7.939453125c-19.126953125-6.13525390625-52.328369140630457-20.20947265625-52.328369140630457-53.77197265625,0-34.64501953125,28.870849609380457-58.46337890625,68.92919921875-58.46337890625,23.818359375,0,45.471435546880457,7.57861328125,59.185302734380457,28.14892578125,7.217529296869543,10.4658203125,1.80419921875,19.8486328125-10.10498046875,22.73583984375l-10.104736328130457,2.5263671875c-9.383056640619543,2.52587890625-14.435302734369543-.72216796875-20.931396484369543-6.85693359375-5.05224609375-5.05224609375-11.54833984375-6.85693359375-18.044189453130457-6.85693359375-11.54833984375,0-18.76611328125,7.2177734375-18.76611328125,15.87890625,0,7.939453125,7.2177734375,11.9091796875,16.961669921880457,15.1572265625l23.0966796875,8.6611328125c38.25390625,12.63134765625,51.967529296869543,33.20166015625,52.689208984369543,55.9375,0,38.9755859375-34.64501953125,58.1025390625-74.703369140619543,58.1025390625-32.840576171880457,0-59.5458984375-12.27001953125-71.816162109380457-37.17138671875Z"/>
    <path class="cls-1" d="M664.178667498556933,194.628092604982157c0-53.4111328125,44.02783203125-96.71728515625,102.85205078125-96.71728515625,58.82470703125,0,102.8525390625,43.30615234375,102.8525390625,96.71728515625s-44.02783203125,96.71728515625-102.8525390625,96.71728515625c-58.82421875,0-102.85205078125-42.9453125-102.85205078125-96.71728515625ZM816.832964373556933,194.988932448732157c0-29.23193359375-22.013671875-51.6064453125-49.80224609375-51.6064453125-28.14892578125,0-49.80224609375,22.37451171875-49.80224609375,51.6064453125,0,28.87109375,21.6533203125,51.24560546875,49.80224609375,51.24560546875,27.78857421875,0,49.80224609375-22.37451171875,49.80224609375-51.24560546875Z"/>
    <path class="cls-1" d="M891.172808123556933,195.710612136232157c0-54.1328125,41.501953125-97.7998046875,106.822265625-97.7998046875,17.68310546875,0,38.9755859375,3.9697265625,58.82421875,15.51806640625,9.74365234375,6.134765625,10.1044921875,15.51806640625,3.248046875,24.5400390625l-5.7744140625,7.2177734375c-6.85693359375,8.6611328125-14.07421875,9.02197265625-24.5400390625,4.33056640625-11.9091796875-5.77392578125-23.45751953125-6.49609375-28.51025390625-6.49609375-31.39697265625,0-54.1328125,21.29248046875-54.1328125,51.60693359375s22.73583984375,51.6064453125,54.1328125,51.6064453125c5.052734375,0,16.60107421875-.7216796875,28.51025390625-6.49560546875,10.4658203125-4.69189453125,18.0439453125-4.3310546875,24.5400390625,4.33056640625l5.7744140625,7.2177734375c6.8564453125,9.02197265625,5.4130859375,19.48779296875-6.49609375,25.9833984375-18.4052734375,10.4658203125-38.61474609375,14.07470703125-55.576171875,14.07470703125-64.5986328125,0-106.822265625-42.58447265625-106.822265625-95.634765625Z"/>
    <path class="cls-1" d="M1095.072222186056933,50.995768386232157c0-16.60107421875,11.9091796875-29.23193359375,33.56201171875-29.23193359375,21.29248046875,0,33.5625,12.630859375,33.5625,29.23193359375,0,16.23974609375-12.99169921875,28.87060546875-33.5625,28.87060546875-20.5703125,0-33.56201171875-12.630859375-33.56201171875-28.87060546875ZM1100.846147967306933,270.053385573732157V119.202799636232157c0-11.1875,6.13525390625-17.322265625,17.32275390625-17.322265625h20.93115234375c11.1875,0,17.68359375,6.134765625,17.68359375,17.322265625v150.8505859375c0,11.18701171875-6.49609375,17.322265625-17.68359375,17.322265625h-20.93115234375c-11.1875,0-17.32275390625-6.13525390625-17.32275390625-17.322265625Z"/>
    <path class="cls-1" d="M1190.706011248556933,194.628092604982157c0-54.49365234375,37.17138671875-96.71728515625,89.138671875-96.71728515625,24.5400390625,0,46.193359375,9.3828125,59.54638671875,30.314453125v-9.0224609375c0-11.1875,6.134765625-17.322265625,17.322265625-17.322265625h21.29248046875c11.18701171875,0,17.322265625,6.134765625,17.322265625,17.322265625v150.8505859375c0,11.18701171875-6.13525390625,17.322265625-17.322265625,17.322265625h-21.29248046875c-11.1875,0-17.322265625-6.13525390625-17.322265625-17.322265625v-8.66162109375c-13.35302734375,20.57080078125-35.00634765625,29.95361328125-59.54638671875,29.95361328125-51.96728515625,0-89.138671875-41.86279296875-89.138671875-96.71728515625ZM1340.112749529806933,194.628092604982157c0-29.5927734375-18.76611328125-51.9677734375-47.2763671875-51.9677734375-29.2314453125,0-46.193359375,23.45751953125-46.193359375,51.9677734375,0,28.87060546875,16.9619140625,51.96728515625,46.193359375,51.96728515625,28.51025390625,0,47.2763671875-22.37451171875,47.2763671875-51.96728515625Z"/>
    <path class="cls-1" d="M1440.795854998556933,270.053385573732157V43.777994948732157c0-11.1875,6.13525390625-17.32275390625,17.322265625-17.32275390625h20.931640625c11.1875,0,17.68359375,6.13525390625,17.68359375,17.32275390625v226.275390625c0,11.18701171875-6.49609375,17.322265625-17.68359375,17.322265625h-20.931640625c-11.18701171875,0-17.322265625-6.13525390625-17.322265625-17.322265625Z"/>
    <path class="cls-1" d="M1531.482866717306933,269.692057448732157c0-11.9091796875,9.3828125-21.65283203125,21.65283203125-21.65283203125,12.2705078125,0,21.6533203125,9.74365234375,21.6533203125,21.65283203125,0,12.2705078125-9.3828125,21.6533203125-21.6533203125,21.6533203125-12.27001953125,0-21.65283203125-9.3828125-21.65283203125-21.6533203125Z"/>
    <path class="cls-1" d="M1606.030718279806933,358.469889479982157V117.037760573732157c0-6.13525390625,3.60888671875-9.744140625,9.3828125-9.744140625h8.30029296875c6.13525390625,0,9.744140625,3.60888671875,9.744140625,9.744140625v25.62255859375c16.23974609375-27.06640625,41.86279296875-39.33642578125,70.37255859375-39.33642578125,54.8544921875,0,90.22119140625,42.2236328125,90.22119140625,94.19140625,0,51.24560546875-34.64501953125,93.830078125-89.8603515625,93.830078125-29.2314453125,0-54.8544921875-12.630859375-70.7333984375-39.33642578125v106.4609375c0,6.13525390625-3.60888671875,9.744140625-9.744140625,9.744140625h-8.30029296875c-5.77392578125,0-9.3828125-3.60888671875-9.3828125-9.744140625ZM1766.263628436056933,197.515299636232157c0-38.25390625-24.17919921875-69.65087890625-65.3203125-69.65087890625-39.697265625,0-67.84619140625,29.2314453125-68.20703125,69.65087890625.36083984375,39.697265625,27.7880859375,69.2900390625,68.20703125,69.2900390625,41.86279296875,0,65.3203125-31.75830078125,65.3203125-69.2900390625Z"/>
    <path class="cls-1" d="M1839.880815936056933,277.631510573732157V36.199381667482157c0-6.13525390625,3.60888671875-9.744140625,9.74365234375-9.744140625h8.30078125c5.77392578125,0,9.3828125,3.60888671875,9.3828125,9.744140625v241.43212890625c0,6.13525390625-3.60888671875,9.744140625-9.3828125,9.744140625h-8.30078125c-6.134765625,0-9.74365234375-3.60888671875-9.74365234375-9.744140625Z"/>
    <path class="cls-1" d="M1923.602495623556933,209.785319167482157v-92.74755859375c0-5.7744140625,3.60888671875-9.744140625,9.74365234375-9.744140625h8.30029296875c6.13525390625,0,9.744140625,3.60888671875,9.744140625,9.744140625v92.74755859375c0,43.30615234375,22.73583984375,57.02001953125,45.4716796875,57.02001953125,19.8486328125,0,60.62890625-14.07470703125,60.98974609375-72.17724609375v-77.59033203125c0-6.13525390625,3.60888671875-9.744140625,9.74365234375-9.744140625h8.30029296875c6.13525390625,0,9.744140625,3.60888671875,9.744140625,9.744140625v160.59375c0,6.13525390625-3.60888671875,9.744140625-9.744140625,9.744140625h-8.30029296875c-6.134765625,0-9.74365234375-3.60888671875-9.74365234375-9.744140625v-28.509765625c-9.38330078125,28.509765625-36.0888671875,42.2236328125-62.79443359375,42.2236328125-38.25390625,0-71.455078125-22.375-71.455078125-81.56005859375Z"/>
    <path class="cls-1" d="M2130.389116717306933,257.782877761232157c-3.60888671875-6.134765625-.36083984375-10.46533203125,5.7744140625-12.27001953125l6.49560546875-1.80419921875c5.41357421875-1.44384765625,8.66162109375.7216796875,12.2705078125,5.4130859375,7.21728515625,11.1875,21.65283203125,18.4052734375,38.25341796875,18.4052734375,20.2099609375,0,35.72802734375-11.9091796875,35.72802734375-28.87109375,0-13.71337890625-10.10498046875-22.013671875-25.26220703125-27.06640625l-25.62255859375-8.30029296875c-25.98388671875-7.939453125-42.94580078125-22.375-42.94580078125-47.63671875,0-28.51025390625,22.375-52.32861328125,57.74169921875-52.32861328125,20.57080078125,0,41.14111328125,8.30029296875,52.32861328125,29.5927734375,3.248046875,6.134765625,0,10.82666015625-6.49609375,12.27001953125l-5.77392578125,1.443359375c-5.41357421875,1.44384765625-8.6611328125-.7216796875-12.27001953125-5.77392578125-6.49609375-9.3828125-16.9619140625-13.7138671875-27.06640625-13.7138671875-19.84912109375,0-31.75830078125,13.35302734375-31.75830078125,27.78857421875,0,14.7958984375,12.63134765625,22.013671875,24.9013671875,25.9833984375l26.70556640625,8.66162109375c32.11865234375,9.74365234375,41.86279296875,29.59228515625,41.86279296875,49.44091796875,0,32.8408203125-28.87109375,52.32861328125-62.43359375,52.32861328125-27.06640625,0-51.24560546875-11.9091796875-62.43310546875-33.5625Z"/>
  </g>
</svg>
