<svg xmlns="http://www.w3.org/2000/svg" xmlns:xlink="http://www.w3.org/1999/xlink" viewBox="0 0 390 390" fill="none">
  <defs>
    <style>
      .cls-2 { fill: url(#linear-gradient-2); }
      .cls-3 { fill: url(#linear-gradient); }
      .cls-4 { fill: #27265e; }
    </style>
    <linearGradient id="linear-gradient" x1="125.803" y1="60.749" x2="307.713" y2="270.341" gradientUnits="userSpaceOnUse">
      <stop offset="0" stop-color="#f568f0"/>
      <stop offset=".5161" stop-color="#f66005"/>
      <stop offset="1" stop-color="#f7c506"/>
    </linearGradient>
    <linearGradient id="linear-gradient-2" x1="62.834" y1="116.6" x2="247.38" y2="334.101" gradientUnits="userSpaceOnUse">
      <stop offset=".0973" stop-color="#3769ec"/>
      <stop offset=".4693" stop-color="#3b41ec"/>
      <stop offset=".9102" stop-color="#45a5ed"/>
    </linearGradient>
  </defs>
  <path class="cls-3" d="M324.981,129.992h-64.996v-64.996C259.986,29.1,230.886,0,194.989,0h0C159.093,0,130.993,29.1,129.993,64.996v194.989h194.989c35.897,0,64.997-29.1,64.997-64.997h0C389.978,159.092,360.878,129.992,324.981,129.992Z"/>
  <path class="cls-2" d="M129.992,129.993l-64.996,0C29.1,129.993,0,159.093,0,194.989v0c0,35.897,29.1,64.997,64.996,64.997l64.996,0v64.996c0,35.897,29.1,64.997,64.997,64.997h0c35.897,0,64.997-29.1,64.997-64.997l0-64.996v-62.59c0-37.226-30.178-67.404-67.404-67.404H129.992Z"/>
  <path class="cls-4" d="M194.989,129.993h0c35.873,0,64.997,29.124,64.997,64.997v0c0,35.873-29.124,64.997-64.997,64.997h-64.997v-64.997C129.993,159.117,159.116,129.993,194.989,129.993Z"/>
</svg>
